# xmcd CD database file
#
# Track frame offsets:
#	150
#	18024
#	38086
#	49367
#	62150
#	84185
#	102735
#	117081
#	133367
#	148389
#	167563
#
# Disc length: 2512 seconds
#
# Revision: 2
# Processed by: cddbd v1.5.1PL0 Copyright (c) Steve Scherf et al.
# Submitted via: CDex 1.51
#
DISCID=9a09ce0b
DTITLE=Skalpel - Konfusion
DYEAR=2005
DGENRE=Jazz
TTITLE0=Konfusion
TTITLE1=Flying Officer
TTITLE2=Seaweed
TTITLE3=Test Drive
TTITLE4=Split
TTITLE5=Wooden Toy
TTITLE6=6th Dimension
TTITLE7=Long Distance Call
TTITLE8=Hiperbole
TTITLE9=Shivers
TTITLE10=Deep Breath
EXTD=YEAR: 2005
EXTT0=
EXTT1=
EXTT2=
EXTT3=
EXTT4=
EXTT5=
EXTT6=
EXTT7=
EXTT8=
EXTT9=
EXTT10=
PLAYORDER=
